<?xml version="1.0" standalone="no"?>
<!DOCTYPE svg PUBLIC "-//W3C//DTD SVG 20010904//EN"
 "http://www.w3.org/TR/2001/REC-SVG-20010904/DTD/svg10.dtd">
<svg version="1.0" xmlns="http://www.w3.org/2000/svg"
 width="626.000000pt" height="417.000000pt" viewBox="0 0 626.000000 417.000000"
 preserveAspectRatio="xMidYMid meet">

<g transform="translate(0.000000,417.000000) scale(0.100000,-0.100000)"
fill="#000000" stroke="none">
<path d="M0 2085 l0 -2085 3130 0 3130 0 0 2085 0 2085 -3130 0 -3130 0 0
-2085z m5183 1370 c9 -4 17 -15 17 -24 0 -11 -3 -12 -8 -4 -5 9 -11 9 -23 0
-19 -15 -32 -47 -18 -47 18 0 5 -43 -13 -46 -10 -1 -18 1 -18 6 0 4 -9 6 -20
3 -13 -4 -26 1 -35 13 -13 17 -14 18 -15 2 0 -10 -4 -18 -10 -18 -5 0 -10 8
-11 18 0 13 -2 14 -6 2 -7 -18 -32 -35 -53 -35 -8 0 -16 -8 -18 -17 -3 -14 6
-18 45 -21 30 -2 15 -4 -39 -5 -100 -2 -103 0 -107 80 -3 61 5 87 32 99 25 10
272 6 300 -6z m-3943 -62 c10 -17 10 -17 20 0 17 27 30 20 30 -18 0 -19 -4
-35 -10 -35 -5 0 -10 8 -10 18 0 14 -2 15 -10 2 -9 -13 -11 -13 -20 0 -8 13
-10 12 -10 -2 0 -10 -4 -18 -10 -18 -5 0 -10 16 -10 35 0 38 13 45 30 18z
m140 -18 c-8 -9 -8 -15 0 -20 5 -3 10 -1 10 4 0 6 8 11 18 12 10 0 12 3 4 6
-6 2 -10 9 -7 13 10 17 35 -2 35 -25 0 -21 -5 -24 -39 -23 -32 0 -40 4 -43 22
-7 34 1 49 18 35 10 -8 11 -15 4 -24z m125 0 c0 -25 -4 -30 -27 -33 -26 -3
-28 -1 -28 33 0 34 2 36 28 33 23 -3 27 -8 27 -33z m35 14 c0 -19 1 -19 16 -4
12 12 19 13 29 5 10 -8 20 -8 33 -1 19 10 32 6 32 -10 0 -5 -7 -6 -15 -3 -8 4
-15 1 -15 -5 0 -6 7 -11 15 -11 8 0 15 -4 15 -10 0 -13 -27 -13 -35 0 -4 6
-13 5 -25 -2 -14 -9 -22 -9 -34 1 -11 9 -16 10 -16 2 0 -6 -4 -11 -10 -11 -5
0 -10 16 -10 35 0 19 5 35 10 35 6 0 10 -9 10 -21z m140 6 c0 -8 6 -12 13 -10
7 3 13 -4 13 -20 1 -14 -2 -25 -7 -25 -5 0 -9 6 -10 13 0 10 -2 10 -6 0 -10
-25 -23 -12 -23 22 0 19 5 35 10 35 6 0 10 -7 10 -15z m-336 -39 c-4 -9 -14
-16 -23 -14 -20 4 -27 38 -9 49 18 11 40 -13 32 -35z m3775 -563 c-12 -15 -12
-16 4 -10 9 3 17 2 17 -3 0 -6 -9 -10 -20 -10 -11 0 -20 2 -20 4 0 14 14 36
22 36 6 0 4 -8 -3 -17z m-1712 1 c26 -7 43 -78 23 -97 -10 -9 -11 -7 -5 12 5
16 4 21 -4 17 -6 -4 -11 -2 -11 3 0 15 -47 14 -53 -1 -3 -7 -6 0 -6 15 -1 16
-5 26 -11 22 -5 -3 -7 -13 -4 -23 4 -13 3 -13 -7 2 -10 17 -8 22 11 38 24 19
33 21 67 12z m-2340 -81 c-3 -10 -5 -4 -5 12 0 17 2 24 5 18 2 -7 2 -21 0 -30z
m193 13 c0 -22 -4 -25 -41 -24 -31 0 -39 4 -37 16 4 18 28 29 28 12 0 -6 -4
-8 -10 -5 -5 3 -10 1 -10 -4 0 -16 9 -14 37 9 32 25 33 25 33 -4z m-121 -10
c0 -20 -1 -21 -9 -1 l-9 20 0 -20 c-1 -17 -3 -18 -11 -5 -9 13 -11 13 -20 0
-8 -13 -10 -13 -10 1 0 21 7 27 35 27 19 0 25 -6 24 -22z m22 -3 c-8 -15 -10
-15 -11 -2 0 17 10 32 18 25 2 -3 -1 -13 -7 -23z m179 17 c0 -5 -6 -10 -12
-10 -9 0 -9 -3 1 -9 10 -6 2 -9 -23 -9 -27 0 -36 4 -36 17 0 14 2 14 10 1 6
-9 10 -10 10 -3 0 10 15 18 43 22 4 0 7 -3 7 -9z m105 -19 c0 -14 -7 -26 -15
-28 -13 -4 -13 -3 0 6 14 10 8 13 -16 10 -4 0 -11 5 -15 13 -7 11 -11 10 -19
-2 -8 -13 -10 -13 -10 1 0 23 7 27 43 25 27 -1 32 -6 32 -25z m-88 -3 c-3 -8
-6 -5 -6 6 -1 11 2 17 5 13 3 -3 4 -12 1 -19z m3779 -5 c22 -29 16 -43 -16
-43 -33 0 -37 9 -18 40 16 24 17 24 34 3z m-1376 3 c0 -3 -4 -8 -10 -11 -5 -3
-10 -1 -10 4 0 6 5 11 10 11 6 0 10 -2 10 -4z m1166 -63 c-10 -10 -19 5 -10
18 6 11 8 11 12 0 2 -7 1 -15 -2 -18z m212 -48 c16 -35 16 -35 -18 -35 -16 0
-30 2 -30 5 0 11 24 55 30 55 4 0 12 -11 18 -25z m-1131 -72 c-3 -32 -29 -38
-33 -9 -4 25 3 36 21 36 9 0 13 -10 12 -27z m101 -1 c4 -25 -25 -43 -38 -22
-5 9 -9 9 -14 1 -5 -8 -12 -6 -23 4 -21 22 -3 41 39 40 27 0 34 -4 36 -23z
m42 4 c0 -14 -4 -28 -10 -31 -5 -3 -10 0 -10 9 0 8 -3 21 -6 30 -4 11 -1 16
10 16 10 0 16 -9 16 -24z m50 19 c0 -12 -24 -55 -32 -55 -12 0 -10 14 4 28 10
10 10 15 -2 22 -12 8 -10 10 8 10 12 0 22 -2 22 -5z m55 -4 c-3 -5 -1 -12 4
-15 5 -3 11 1 15 9 9 25 36 18 36 -9 0 -30 -16 -42 -35 -26 -9 7 -15 8 -20 1
-3 -6 -15 -9 -25 -8 -25 4 -38 17 -17 17 10 0 16 3 16 8 -3 20 3 32 17 32 8 0
13 -4 9 -9z m-894 -140 c45 -46 38 -125 -14 -152 -17 -9 -19 -9 -11 1 17 18 5
53 -15 44 -27 -12 -66 -10 -63 4 1 6 -2 12 -8 12 -5 0 -10 16 -10 35 0 24 -5
35 -15 35 -8 0 -15 -8 -16 -17 -2 -52 -19 -85 -19 -37 1 92 107 138 171 75z
m1333 4 c7 -20 -23 -32 -35 -14 -6 10 -9 10 -9 2 0 -7 -7 -13 -16 -13 -13 0
-14 3 -5 13 6 8 8 17 4 20 -3 4 7 7 24 7 19 0 33 -6 37 -15z m36 11 c0 -2 3
-11 6 -20 4 -11 0 -16 -13 -16 -12 0 -19 8 -20 20 -1 11 4 20 13 20 8 0 14 -2
14 -4z m190 -17 c0 -46 -26 -103 -64 -143 -23 -23 -33 -32 -22 -20 17 21 15
50 -3 39 -5 -2 -24 11 -43 29 -30 30 -33 36 -21 52 7 10 13 28 13 41 0 22 4
23 70 23 65 0 70 -2 70 -21z m-223 -95 c-3 -3 -12 -4 -19 -1 -8 3 -5 6 6 6 11
1 17 -2 13 -5z m-3477 -52 c0 -26 2 -28 35 -24 52 6 65 -10 65 -79 0 -52 -2
-59 -19 -59 -17 0 -20 8 -23 47 -2 37 -7 49 -22 51 -24 5 -36 -14 -36 -60 0
-31 -4 -38 -20 -38 -19 0 -20 7 -20 95 0 88 1 95 20 95 15 0 20 -7 20 -28z
m2001 11 c13 -16 12 -17 -3 -4 -17 13 -22 21 -14 21 2 0 10 -8 17 -17z m-2101
-18 c0 -8 7 -15 15 -15 8 0 15 -9 15 -20 0 -11 -7 -20 -16 -20 -11 0 -14 -8
-12 -32 2 -21 8 -33 18 -33 8 0 16 -8 18 -17 3 -14 -3 -18 -25 -18 -38 0 -53
16 -53 58 0 21 -7 40 -17 48 -17 13 -17 15 0 28 9 7 17 18 17 25 0 6 9 11 20
11 11 0 20 -7 20 -15z m3020 1 c0 -2 -8 -10 -17 -17 -16 -13 -17 -12 -4 4 13
16 21 21 21 13z m-832 -13 c-10 -2 -26 -2 -35 0 -10 3 -2 5 17 5 19 0 27 -2
18 -5z m-1838 -23 c11 -11 20 -29 20 -40 0 -17 -7 -20 -52 -20 -46 -1 -51 -2
-35 -14 9 -7 28 -11 41 -9 13 3 27 -1 31 -7 18 -30 -65 -41 -103 -14 -31 21
-31 87 0 108 31 22 74 20 98 -4z m153 -22 c10 -28 17 -38 21 -28 3 8 10 27 15
43 16 43 46 36 63 -15 l14 -42 17 42 c12 29 23 42 36 42 19 0 19 -2 -4 -65
-14 -36 -25 -68 -25 -70 0 -3 -9 -5 -21 -5 -14 0 -25 12 -36 38 l-16 37 -15
-38 c-23 -58 -51 -48 -79 28 -27 75 -27 75 -4 75 14 0 24 -12 34 -42z m299 25
c13 -12 18 -30 18 -69 l0 -52 -52 0 c-59 -1 -78 10 -78 43 0 25 17 35 57 35
15 0 23 5 20 13 -2 7 -17 11 -35 9 -31 -3 -43 13 -25 31 13 13 77 7 95 -10z
m86 -23 c9 -22 20 -40 23 -40 3 0 12 18 19 40 10 31 18 40 36 40 l23 0 -35
-82 c-43 -102 -50 -110 -87 -106 -32 3 -49 25 -25 32 51 16 50 10 18 82 -17
36 -30 68 -30 70 0 2 9 4 21 4 14 0 25 -12 37 -40z m162 -262 l0 -52 28 27
c26 25 72 37 72 19 0 -5 -11 -19 -25 -32 l-24 -23 30 -36 c29 -35 29 -36 8
-39 -13 -2 -32 7 -50 24 l-28 27 -7 -27 c-4 -16 -13 -26 -25 -26 -17 0 -19 8
-19 95 0 88 1 95 20 95 17 0 20 -7 20 -52z m-1056 -40 l18 -43 18 43 c14 29
25 42 40 42 11 0 20 -1 20 -3 0 -11 -68 -157 -79 -171 -13 -15 -62 -22 -74
-10 -12 12 6 34 29 34 29 0 29 -3 3 57 -41 95 -41 93 -15 93 18 0 27 -10 40
-42z m223 20 c48 -45 16 -118 -52 -118 -44 0 -75 29 -75 70 0 64 79 93 127 48z
m91 -31 c3 -43 5 -48 25 -45 19 3 22 10 25 51 3 39 6 47 23 47 17 0 19 -7 19
-69 l0 -69 -52 0 c-71 -1 -88 15 -88 85 0 51 2 54 23 51 19 -3 22 -10 25 -51z
m235 11 l15 -43 18 43 c11 27 23 42 35 42 11 0 22 -14 32 -42 l15 -43 11 30
c6 17 14 36 16 43 2 6 13 12 24 12 20 0 20 -1 1 -52 -29 -84 -31 -88 -52 -88
-13 0 -24 12 -35 38 l-16 37 -12 -35 c-9 -27 -17 -35 -36 -35 -20 0 -27 9 -46
60 -27 75 -27 75 -4 75 14 0 24 -12 34 -42z m314 20 c48 -45 16 -118 -52 -118
-43 0 -75 29 -75 70 0 62 80 93 127 48z m133 2 c0 -10 -9 -20 -20 -23 -16 -4
-20 -14 -20 -51 0 -42 -2 -46 -25 -46 -24 0 -25 2 -25 69 l0 69 45 0 c36 -1
45 -5 45 -18z m2532 -107 c16 -14 18 -34 18 -185 l0 -168 -85 0 -85 0 -2 43
-1 42 -4 -43 c-3 -34 0 -47 14 -58 21 -15 103 -19 103 -4 0 6 14 10 30 10 28
0 30 -2 29 -37 -1 -38 -1 -38 -9 -8 -4 17 -8 24 -9 18 -1 -9 -25 -13 -86 -13
-74 0 -85 2 -86 18 -1 36 -18 -22 -19 -68 -1 -25 -5 -54 -10 -65 -5 -12 -9 86
-9 242 -1 225 1 264 15 277 23 23 170 23 196 -1z m-812 -53 c0 -38 -4 -60 -11
-60 -6 0 -9 -9 -6 -20 3 -11 1 -20 -4 -20 -5 0 -9 36 -9 80 0 64 3 80 15 80
12 0 15 -13 15 -60z m288 7 c3 -22 -1 -27 -17 -27 -15 0 -21 6 -21 23 0 46 33
49 38 4z m67 2 c0 -19 -5 -24 -27 -25 -20 -1 -25 3 -21 15 17 46 48 52 48 10z
m-167 -44 c-4 -84 -18 -84 -18 0 0 39 4 65 11 65 6 0 9 -24 7 -65z m-293 27
c-5 -4 -10 -26 -10 -49 0 -22 -3 -39 -7 -36 -5 2 -8 24 -8 49 0 35 3 44 18 44
9 0 13 -4 7 -8z m191 -72 c0 -11 -4 -20 -8 -20 -4 0 -8 9 -8 20 0 11 4 20 8
20 4 0 8 -9 8 -20z m-2448 -102 c7 -7 11 -28 11 -47 l-2 -36 -6 35 c-7 38 -8
39 -86 27 -68 -11 -105 -28 -47 -22 23 2 42 0 42 -6 0 -5 -12 -9 -27 -9 -42 0
-21 -10 28 -13 31 -1 44 -6 44 -17 0 -18 -66 -24 -77 -7 -6 9 -8 9 -8 0 0 -19
-37 -16 -44 3 -3 9 -3 21 1 26 3 7 1 8 -5 4 -7 -4 -12 -16 -12 -27 0 -25 -40
-27 -40 -1 -1 15 -2 15 -16 -3 -10 -14 -27 -20 -52 -20 -28 0 -39 5 -44 20 -6
19 -6 18 -7 -2 -1 -18 -7 -23 -26 -23 -27 0 -33 -18 -12 -40 10 -12 9 -12 -5
-1 -14 10 -18 28 -18 80 0 39 5 72 12 79 8 8 67 12 198 12 131 0 190 -4 198
-12z m363 -75 c1 -17 2 -17 6 -1 3 13 9 16 21 9 9 -5 28 -7 42 -6 14 1 28 -3
32 -9 5 -8 8 -7 8 1 0 7 7 10 15 7 8 -4 15 -12 15 -19 0 -15 -91 -15 -102 0
-5 6 -8 5 -8 -2 0 -7 -12 -13 -26 -13 -14 0 -23 4 -19 9 3 5 1 12 -5 16 -12 7
-4 25 11 25 5 0 10 -8 10 -17z m354 0 c12 1 20 -4 20 -13 0 -17 -36 -21 -47
-5 -5 6 -8 6 -8 -2 0 -7 -9 -13 -20 -13 -13 0 -20 7 -20 19 0 22 18 32 40 20
9 -4 25 -7 35 -6z m145 1 c54 1 65 -2 68 -16 3 -14 -3 -17 -22 -16 -14 1 -26
7 -26 13 0 5 -5 3 -10 -5 -9 -13 -10 -13 -10 0 0 9 -3 11 -8 5 -9 -13 -89 -17
-97 -6 -7 12 26 45 34 34 3 -5 35 -9 71 -9z m-576 0 c13 -5 14 -9 5 -20 -16
-20 -29 -17 -29 6 0 22 1 23 24 14z m331 -15 c0 -8 -10 -15 -22 -15 -13 -1
-23 4 -23 10 0 7 -3 7 -8 1 -11 -16 -42 -17 -42 -2 0 22 10 27 54 24 28 -2 41
-8 41 -18z m1985 -72 c0 -7 -6 -21 -13 -32 -13 -17 -15 -17 -30 6 -24 33 -21
39 13 39 18 0 30 -5 30 -13z m513 -24 c-18 -2 -48 -2 -65 0 -18 2 -4 4 32 4
36 0 50 -2 33 -4z m10 -45 c8 -12 6 -23 -7 -43 -24 -37 -43 -41 -72 -15 -25
25 -31 49 -14 66 16 16 82 11 93 -8z m-523 -31 c0 -7 -6 -21 -13 -32 -13 -17
-15 -17 -30 5 -9 13 -14 27 -11 32 8 13 54 9 54 -5z m-18 -104 c-12 -2 -20 -9
-16 -14 3 -5 10 -6 16 -3 7 4 8 2 4 -5 -6 -9 -11 -9 -22 0 -22 18 -17 29 14
28 23 -2 24 -2 4 -6z m532 -39 c19 -18 19 -20 6 -45 -6 -10 -21 -19 -33 -19
-13 0 -28 -5 -35 -12 -17 -17 -28 0 -14 22 7 11 12 26 12 33 0 16 20 37 36 37
7 0 20 -7 28 -16z"/>
<path d="M5085 3370 c-3 -5 -1 -10 4 -10 6 0 11 5 11 10 0 6 -2 10 -4 10 -3 0
-8 -4 -11 -10z"/>
<path d="M1565 3370 c-3 -5 -1 -10 4 -10 6 0 11 5 11 10 0 6 -2 10 -4 10 -3 0
-8 -4 -11 -10z"/>
<path d="M1425 2720 c-3 -5 -1 -10 4 -10 6 0 11 5 11 10 0 6 -2 10 -4 10 -3 0
-8 -4 -11 -10z"/>
<path d="M4081 2524 c0 -11 3 -14 6 -6 3 7 2 16 -1 19 -3 4 -6 -2 -5 -13z"/>
<path d="M4286 2531 c-4 -7 -5 -15 -2 -18 9 -9 19 4 14 18 -4 11 -6 11 -12 0z"/>
<path d="M1403 2193 c-24 -9 -13 -23 17 -23 32 0 40 14 14 24 -9 3 -16 6 -17
5 -1 0 -8 -3 -14 -6z"/>
<path d="M1857 2144 c-14 -14 -7 -25 13 -22 12 2 21 8 21 13 0 12 -24 18 -34
9z"/>
<path d="M1254 1868 c-12 -39 45 -60 60 -22 9 23 -5 44 -29 44 -15 0 -26 -8
-31 -22z"/>
<path d="M1894 1868 c-12 -39 45 -60 60 -22 9 23 -5 44 -29 44 -15 0 -26 -8
-31 -22z"/>
<path d="M4523 1543 c15 -2 37 -2 50 0 12 2 0 4 -28 4 -27 0 -38 -2 -22 -4z"/>
<path d="M4603 1495 c0 -22 2 -30 4 -17 2 12 2 30 0 40 -3 9 -5 -1 -4 -23z"/>
<path d="M4533 1505 c0 -9 4 -11 11 -6 6 4 18 11 26 14 9 3 5 6 -11 6 -16 1
-26 -4 -26 -14z"/>
<path d="M1128 1513 c6 -2 18 -2 25 0 6 3 1 5 -13 5 -14 0 -19 -2 -12 -5z"/>
<path d="M1178 1503 c7 -3 16 -2 19 1 4 3 -2 6 -13 5 -11 0 -14 -3 -6 -6z"/>
<path d="M1151 1474 c0 -11 3 -14 6 -6 3 7 2 16 -1 19 -3 4 -6 -2 -5 -13z"/>
<path d="M4542 1138 c6 -18 28 -21 28 -4 0 9 -7 16 -16 16 -9 0 -14 -5 -12
-12z"/>
</g>
</svg>
